<svg width="20" height="20" viewBox="0 0 20 20" fill="none" xmlns="http://www.w3.org/2000/svg">
<path d="M4.70801 16.6667C4.31912 16.6667 3.99273 16.5348 3.72884 16.2709C3.46495 16.007 3.33301 15.6806 3.33301 15.2917C3.33301 14.9028 3.46495 14.5764 3.72884 14.3125C3.99273 14.0487 4.31912 13.9167 4.70801 13.9167C5.0969 13.9167 5.42329 14.0487 5.68717 14.3125C5.95106 14.5764 6.08301 14.9028 6.08301 15.2917C6.08301 15.6806 5.95106 16.007 5.68717 16.2709C5.42329 16.5348 5.0969 16.6667 4.70801 16.6667ZM9.99967 16.6667C9.61079 16.6667 9.2844 16.5348 9.02051 16.2709C8.75662 16.007 8.62467 15.6806 8.62467 15.2917C8.62467 14.9028 8.75662 14.5764 9.02051 14.3125C9.2844 14.0487 9.61079 13.9167 9.99967 13.9167C10.3886 13.9167 10.715 14.0487 10.9788 14.3125C11.2427 14.5764 11.3747 14.9028 11.3747 15.2917C11.3747 15.6806 11.2427 16.007 10.9788 16.2709C10.715 16.5348 10.3886 16.6667 9.99967 16.6667ZM15.2913 16.6667C14.9025 16.6667 14.5761 16.5348 14.3122 16.2709C14.0483 16.007 13.9163 15.6806 13.9163 15.2917C13.9163 14.9028 14.0483 14.5764 14.3122 14.3125C14.5761 14.0487 14.9025 13.9167 15.2913 13.9167C15.6802 13.9167 16.0066 14.0487 16.2705 14.3125C16.5344 14.5764 16.6663 14.9028 16.6663 15.2917C16.6663 15.6806 16.5344 16.007 16.2705 16.2709C16.0066 16.5348 15.6802 16.6667 15.2913 16.6667ZM4.70801 11.375C4.31912 11.375 3.99273 11.2431 3.72884 10.9792C3.46495 10.7153 3.33301 10.3889 3.33301 10C3.33301 9.61115 3.46495 9.28476 3.72884 9.02087C3.99273 8.75698 4.31912 8.62504 4.70801 8.62504C5.0969 8.62504 5.42329 8.75698 5.68717 9.02087C5.95106 9.28476 6.08301 9.61115 6.08301 10C6.08301 10.3889 5.95106 10.7153 5.68717 10.9792C5.42329 11.2431 5.0969 11.375 4.70801 11.375ZM9.99967 11.375C9.61079 11.375 9.2844 11.2431 9.02051 10.9792C8.75662 10.7153 8.62467 10.3889 8.62467 10C8.62467 9.61115 8.75662 9.28476 9.02051 9.02087C9.2844 8.75698 9.61079 8.62504 9.99967 8.62504C10.3886 8.62504 10.715 8.75698 10.9788 9.02087C11.2427 9.28476 11.3747 9.61115 11.3747 10C11.3747 10.3889 11.2427 10.7153 10.9788 10.9792C10.715 11.2431 10.3886 11.375 9.99967 11.375ZM15.2913 11.375C14.9025 11.375 14.5761 11.2431 14.3122 10.9792C14.0483 10.7153 13.9163 10.3889 13.9163 10C13.9163 9.61115 14.0483 9.28476 14.3122 9.02087C14.5761 8.75698 14.9025 8.62504 15.2913 8.62504C15.6802 8.62504 16.0066 8.75698 16.2705 9.02087C16.5344 9.28476 16.6663 9.61115 16.6663 10C16.6663 10.3889 16.5344 10.7153 16.2705 10.9792C16.0066 11.2431 15.6802 11.375 15.2913 11.375ZM4.70801 6.08337C4.31912 6.08337 3.99273 5.95143 3.72884 5.68754C3.46495 5.42365 3.33301 5.09726 3.33301 4.70837C3.33301 4.31949 3.46495 3.9931 3.72884 3.72921C3.99273 3.46532 4.31912 3.33337 4.70801 3.33337C5.0969 3.33337 5.42329 3.46532 5.68717 3.72921C5.95106 3.9931 6.08301 4.31949 6.08301 4.70837C6.08301 5.09726 5.95106 5.42365 5.68717 5.68754C5.42329 5.95143 5.0969 6.08337 4.70801 6.08337ZM9.99967 6.08337C9.61079 6.08337 9.2844 5.95143 9.02051 5.68754C8.75662 5.42365 8.62467 5.09726 8.62467 4.70837C8.62467 4.31949 8.75662 3.9931 9.02051 3.72921C9.2844 3.46532 9.61079 3.33337 9.99967 3.33337C10.3886 3.33337 10.715 3.46532 10.9788 3.72921C11.2427 3.9931 11.3747 4.31949 11.3747 4.70837C11.3747 5.09726 11.2427 5.42365 10.9788 5.68754C10.715 5.95143 10.3886 6.08337 9.99967 6.08337ZM15.2913 6.08337C14.9025 6.08337 14.5761 5.95143 14.3122 5.68754C14.0483 5.42365 13.9163 5.09726 13.9163 4.70837C13.9163 4.31949 14.0483 3.9931 14.3122 3.72921C14.5761 3.46532 14.9025 3.33337 15.2913 3.33337C15.6802 3.33337 16.0066 3.46532 16.2705 3.72921C16.5344 3.9931 16.6663 4.31949 16.6663 4.70837C16.6663 5.09726 16.5344 5.42365 16.2705 5.68754C16.0066 5.95143 15.6802 6.08337 15.2913 6.08337Z" fill="#5F6367"/>
</svg>
