<svg width="20" height="20" viewBox="0 0 20 20" fill="none" xmlns="http://www.w3.org/2000/svg">
<path d="M13.5216 6.47849H6.47852V13.5215H13.5216V6.47849Z" fill="white"/>
<path d="M13.5216 13.5215H6.47852V16.6972H13.5216V13.5215Z" fill="#34A853"/>
<path d="M13.5215 3.30276H4.36131C4.08118 3.30478 3.8131 3.41696 3.61501 3.61504C3.41693 3.81313 3.30475 4.08121 3.30273 4.36134V13.5215H6.47846V6.47849H13.5215V3.30276Z" fill="#4285F4"/>
<path d="M3.30273 13.5215V15.6387C3.30475 15.9188 3.41693 16.1869 3.61501 16.385C3.8131 16.583 4.08118 16.6952 4.36131 16.6972H6.47846V13.5215H3.30273Z" fill="#188038"/>
<path d="M16.6972 6.47849H13.5215V13.5215H16.6972V6.47849Z" fill="#FBBC04"/>
<path d="M16.6972 6.47849V4.36134C16.6952 4.08121 16.583 3.81313 16.3849 3.61504C16.1868 3.41696 15.9188 3.30478 15.6386 3.30276H13.5215V6.47849H16.6972Z" fill="#1967D2"/>
<path d="M13.5215 16.6972L16.6972 13.5215H13.5215V16.6972Z" fill="#EA4335"/>
<path d="M10.9974 9.36922L10.6606 8.89243L11.8591 8.02652H12.3139V12.1026H11.6622V8.85983L10.9974 9.36922Z" fill="#2A83F8"/>
<path d="M9.49861 9.95877C9.64773 9.85835 9.77031 9.72331 9.85589 9.56521C9.94147 9.4071 9.98749 9.23063 9.99003 9.05087C9.99003 8.41713 9.42545 7.90478 8.72821 7.90478C8.45003 7.89585 8.17696 7.98087 7.95302 8.14613C7.72908 8.31139 7.56732 8.54725 7.49384 8.81569L8.05312 9.03906C8.08302 8.89521 8.16275 8.76654 8.27826 8.67574C8.39376 8.58494 8.53762 8.53784 8.68446 8.54275C8.76508 8.53508 8.84642 8.54426 8.92331 8.56971C9.0002 8.59516 9.07095 8.63632 9.13108 8.69059C9.19121 8.74485 9.23939 8.81102 9.27257 8.8849C9.30575 8.95878 9.3232 9.03876 9.32382 9.11975C9.32443 9.20073 9.30819 9.28096 9.27614 9.35534C9.24408 9.42972 9.19691 9.49661 9.13761 9.55178C9.07832 9.60695 9.0082 9.64918 8.9317 9.6758C8.85521 9.70241 8.77402 9.71282 8.69329 9.70638V9.7071H8.6854L8.68446 9.70718L8.6831 9.7071H8.34853V10.2543H8.73052L8.73385 10.2541C8.82584 10.2455 8.9186 10.2563 9.0062 10.2856C9.0938 10.315 9.17431 10.3623 9.24259 10.4245C9.31087 10.4867 9.36541 10.5625 9.40273 10.6471C9.44005 10.7316 9.45933 10.8229 9.45933 10.9153C9.45933 11.0077 9.44005 11.0991 9.40273 11.1836C9.36541 11.2681 9.31087 11.3439 9.24259 11.4061C9.17431 11.4684 9.0938 11.5157 9.0062 11.545C8.9186 11.5744 8.82584 11.5851 8.73385 11.5766C8.62908 11.5777 8.52522 11.557 8.42886 11.5159C8.3325 11.4747 8.24575 11.414 8.17409 11.3375C8.12702 11.2855 8.08869 11.2262 8.0606 11.1619L7.96215 10.9221L7.37183 11.1503C7.45934 11.7615 8.03379 12.2343 8.72821 12.2343C9.48474 12.2343 10.0973 11.6754 10.0973 10.988C10.0939 10.7796 10.037 10.5755 9.93223 10.3953C9.82741 10.2151 9.67811 10.0648 9.49861 9.95877Z" fill="#2A83F8"/>
</svg>
