<svg width="20" height="20" viewBox="0 0 20 20" fill="none" xmlns="http://www.w3.org/2000/svg">
<g clip-path="url(#clip0_306_1272)">
<path d="M10 5C12.1833 5 14.0667 6.55 14.4917 8.69167L14.7417 9.94167L16.0167 10.0333C17.3167 10.1167 18.3333 11.2083 18.3333 12.5C18.3333 13.875 17.2083 15 15.8333 15H5C3.15833 15 1.66667 13.5083 1.66667 11.6667C1.66667 9.95833 2.94167 8.53333 4.63333 8.35833L5.525 8.26667L5.94167 7.475C6.73333 5.95 8.28333 5 10 5ZM10 3.33333C7.59167 3.33333 5.5 4.7 4.45833 6.7C1.95 6.96667 0 9.09167 0 11.6667C0 14.425 2.24167 16.6667 5 16.6667H15.8333C18.1333 16.6667 20 14.8 20 12.5C20 10.3 18.2917 8.51667 16.125 8.36667C15.5583 5.49167 13.0333 3.33333 10 3.33333Z" fill="#5F6367"/>
</g>
<defs>
<clipPath id="clip0_306_1272">
<rect width="20" height="20" fill="white"/>
</clipPath>
</defs>
</svg>
