<svg width="20" height="20" viewBox="0 0 20 20" fill="none" xmlns="http://www.w3.org/2000/svg">
<g clip-path="url(#clip0_306_1359)">
<path d="M2.49988 15C2.49988 15.4584 2.87488 15.8334 3.33321 15.8334H7.49988V14.1667H3.33321C2.87488 14.1667 2.49988 14.5417 2.49988 15ZM2.49988 5.00003C2.49988 5.45836 2.87488 5.83336 3.33321 5.83336H10.8332V4.1667H3.33321C2.87488 4.1667 2.49988 4.5417 2.49988 5.00003ZM10.8332 16.6667V15.8334H16.6665C17.1249 15.8334 17.4999 15.4584 17.4999 15C17.4999 14.5417 17.1249 14.1667 16.6665 14.1667H10.8332V13.3334C10.8332 12.875 10.4582 12.5 9.99988 12.5C9.54154 12.5 9.16654 12.875 9.16654 13.3334V16.6667C9.16654 17.125 9.54154 17.5 9.99988 17.5C10.4582 17.5 10.8332 17.125 10.8332 16.6667ZM5.83321 8.33336V9.1667H3.33321C2.87488 9.1667 2.49988 9.5417 2.49988 10C2.49988 10.4584 2.87488 10.8334 3.33321 10.8334H5.83321V11.6667C5.83321 12.125 6.20821 12.5 6.66654 12.5C7.12488 12.5 7.49988 12.125 7.49988 11.6667V8.33336C7.49988 7.87503 7.12488 7.50003 6.66654 7.50003C6.20821 7.50003 5.83321 7.87503 5.83321 8.33336ZM17.4999 10C17.4999 9.5417 17.1249 9.1667 16.6665 9.1667H9.16654V10.8334H16.6665C17.1249 10.8334 17.4999 10.4584 17.4999 10ZM13.3332 7.50003C13.7915 7.50003 14.1665 7.12503 14.1665 6.6667V5.83336H16.6665C17.1249 5.83336 17.4999 5.45836 17.4999 5.00003C17.4999 4.5417 17.1249 4.1667 16.6665 4.1667H14.1665V3.33336C14.1665 2.87503 13.7915 2.50003 13.3332 2.50003C12.8749 2.50003 12.4999 2.87503 12.4999 3.33336V6.6667C12.4999 7.12503 12.8749 7.50003 13.3332 7.50003Z" fill="#5F6367"/>
</g>
<defs>
<clipPath id="clip0_306_1359">
<rect width="20" height="20" fill="white"/>
</clipPath>
</defs>
</svg>
