<svg width="20" height="20" viewBox="0 0 20 20" fill="none" xmlns="http://www.w3.org/2000/svg">
<path d="M3.75 17.5H12.5049C13.0353 17.5 13.544 17.2893 13.9191 16.9142L16.9142 13.9191C17.2893 13.544 17.5 13.0353 17.5 12.5049V3.75C17.5 3.04167 16.9583 2.5 16.25 2.5H3.75C3.04167 2.5 2.5 3.04167 2.5 3.75V16.25C2.5 16.9583 3.04167 17.5 3.75 17.5Z" fill="#FFC107"/>
<path d="M13.3333 17.5V13.3333H17.4999L13.3333 17.5Z" fill="#FFECB3"/>
<path d="M11.6667 15H8.33333V11.7083C7.04167 11.0833 6.25 9.79166 6.25 8.33333C6.25 6.24999 7.91667 4.58333 10 4.58333C12.0833 4.58333 13.75 6.24999 13.75 8.33333C13.75 9.79166 12.9583 11.0417 11.6667 11.7083V15ZM9.16667 14.1667H10.8333V11.125L11.0833 11C12.2083 10.5417 12.9167 9.49999 12.9167 8.29166C12.9167 6.66666 11.625 5.37499 10 5.37499C8.375 5.37499 7.08333 6.66666 7.08333 8.29166C7.08333 9.49999 7.79167 10.5417 8.91667 11L9.16667 11.125V14.1667Z" fill="white"/>
<path d="M9.16667 14.5833H10.8333V15.8333H9.16667V14.5833ZM8.75 12.5H11.25V13.3333H8.75V12.5Z" fill="white"/>
</svg>
