<svg width="20" height="20" viewBox="0 0 20 20" fill="none" xmlns="http://www.w3.org/2000/svg">
<path d="M9.1665 15H10.8332V13.3334H9.1665V15ZM9.99984 1.66669C5.39984 1.66669 1.6665 5.40002 1.6665 10C1.6665 14.6 5.39984 18.3334 9.99984 18.3334C14.5998 18.3334 18.3332 14.6 18.3332 10C18.3332 5.40002 14.5998 1.66669 9.99984 1.66669ZM9.99984 16.6667C6.32484 16.6667 3.33317 13.675 3.33317 10C3.33317 6.32502 6.32484 3.33335 9.99984 3.33335C13.6748 3.33335 16.6665 6.32502 16.6665 10C16.6665 13.675 13.6748 16.6667 9.99984 16.6667ZM9.99984 5.00002C8.15817 5.00002 6.6665 6.49169 6.6665 8.33335H8.33317C8.33317 7.41669 9.08317 6.66669 9.99984 6.66669C10.9165 6.66669 11.6665 7.41669 11.6665 8.33335C11.6665 10 9.1665 9.79169 9.1665 12.5H10.8332C10.8332 10.625 13.3332 10.4167 13.3332 8.33335C13.3332 6.49169 11.8415 5.00002 9.99984 5.00002Z" fill="#5F6367"/>
</svg>
