<svg width="24" height="24" viewBox="0 0 24 24" fill="none" xmlns="http://www.w3.org/2000/svg">
<path d="M3.02466 17.5V6.50003C3.02466 6.08753 3.17153 5.73441 3.46528 5.44066C3.75903 5.14691 4.11216 5.00003 4.52466 5.00003H19.4997C19.9122 5.00003 20.2653 5.14691 20.559 5.44066C20.8528 5.73441 20.9997 6.08753 20.9997 6.50003V17.5C20.9997 17.9125 20.8528 18.2657 20.559 18.5594C20.2653 18.8532 19.9122 19 19.4997 19H4.52466C4.11216 19 3.75903 18.8532 3.46528 18.5594C3.17153 18.2657 3.02466 17.9125 3.02466 17.5ZM15.5247 11.25H19.4997V6.50003H15.5247V11.25ZM9.99966 11.25H14.0247V6.50003H9.99966V11.25ZM4.52466 11.25H8.49966V6.50003H4.52466V11.25ZM4.52466 17.5H8.49966V12.75H4.52466V17.5ZM9.99966 17.5H14.0247V12.75H9.99966V17.5ZM15.5247 17.5H19.4997V12.75H15.5247V17.5Z" fill="#5F6367"/>
</svg>
