<svg width="36" height="36" viewBox="0 0 36 36" fill="none" xmlns="http://www.w3.org/2000/svg">
<path d="M1.61127 22.875C1.60532 23.4038 1.73902 23.9338 2.0124 24.4078L5.67002 30.7489C6.20576 31.6777 7.19647 32.25 8.26871 32.25H27.7311C28.8033 32.25 29.794 31.6777 30.3297 30.7489L33.9874 24.4078C34.2608 23.9338 34.3945 23.4038 34.3885 22.875H1.61127Z" fill="#4285F4"/>
<path d="M29.2437 31.8408L12.8369 3.4234C13.2939 3.15086 13.823 3 14.3735 3H21.6265C22.6983 3 23.6886 3.5718 24.2245 4.5L33.9869 21.4088C34.5225 22.3367 34.5228 23.4797 33.9875 24.4078L30.3298 30.7489C30.0644 31.2092 29.6872 31.5819 29.2437 31.8408Z" fill="#FBBC04"/>
<path d="M23.163 3.4234C22.706 3.15086 22.1769 3 21.6264 3H14.3734C13.3016 3 12.3112 3.5718 11.7753 4.5L2.01301 21.4088C1.47733 22.3367 1.47709 23.4797 2.0124 24.4078L5.67002 30.7489C5.9355 31.2092 6.3127 31.5819 6.75618 31.8408L23.163 3.4234Z" fill="#34A853"/>
<path d="M34.3887 22.875C34.3947 23.4038 34.261 23.9338 33.9876 24.4078L30.3299 30.7489C30.0645 31.2092 29.6873 31.5819 29.2438 31.8408L24.0674 22.875H34.3887Z" fill="#EA4335"/>
<path d="M23.1631 3.4234C22.7061 3.15086 22.177 3 21.6265 3H14.3735C13.823 3 13.2939 3.15086 12.8369 3.42339L18 12.3661L23.1631 3.4234Z" fill="#188038"/>
<path d="M1.61127 22.875C1.60532 23.4038 1.73902 23.9338 2.0124 24.4078L5.67002 30.7489C5.9355 31.2092 6.3127 31.5819 6.75618 31.8408L11.9326 22.875H1.61127Z" fill="#1967D2"/>
</svg>
