<svg width="17" height="19" viewBox="0 0 17 19" fill="none" xmlns="http://www.w3.org/2000/svg">
<rect width="17" height="19" rx="1" stroke="#5F6367" stroke-width="3" mask="url(#path-1-inside-1_306_1229)"/>
<line x1="1" y1="14.25" x2="16" y2="14.25" stroke="#5F6367" stroke-width="1.5"/>
<path d="M11.6647 7.71795C11.6662 7.70354 11.6662 7.68902 11.6647 7.67461C11.6633 7.66131 11.6633 7.64791 11.6647 7.63461L11.648 7.59461L9.64799 4.16461C9.61607 4.11022 9.56937 4.066 9.51331 4.03709C9.45726 4.00817 9.39415 3.99576 9.33132 4.00128H7.33132C7.27293 4.00088 7.21546 4.01582 7.16466 4.04461L7.12799 4.07128C7.11727 4.07933 7.10724 4.08825 7.09799 4.09795C7.08513 4.10972 7.07391 4.12317 7.06466 4.13795C7.06466 4.13795 7.06466 4.13795 7.04466 4.16461L5.04466 7.60795C5.0154 7.65862 5 7.7161 5 7.77461C5 7.83313 5.0154 7.89061 5.04466 7.94128L6.04466 9.63461C6.05497 9.6526 6.06727 9.66937 6.08132 9.68461V9.70461C6.12273 9.74462 6.17298 9.77431 6.22799 9.79128C6.25233 9.79453 6.27699 9.79453 6.30132 9.79128H10.3313C10.3892 9.79127 10.446 9.77621 10.4963 9.74757C10.5465 9.71893 10.5885 9.67771 10.618 9.62795L11.618 7.91461L11.6347 7.87461C11.6333 7.86131 11.6333 7.84791 11.6347 7.83461C11.6364 7.82022 11.6364 7.80567 11.6347 7.79128C11.6365 7.77689 11.6365 7.76233 11.6347 7.74795C11.6457 7.73906 11.6558 7.729 11.6647 7.71795ZM6.33132 8.81461L5.73466 7.78128L7.33132 4.99461L7.62132 5.49461L7.95466 6.04795L6.66466 8.20795L6.33132 8.81461ZM8.33132 6.70795L8.75132 7.42795H7.90466L8.33132 6.70795ZM10.1413 9.14128H6.89799L7.51132 8.09461H10.7513L10.1413 9.14128ZM9.52132 7.42795L7.91132 4.66795H9.14132L10.7513 7.42795H9.52132Z" fill="#5F6367"/>
</svg>
