<svg width="20" height="20" viewBox="0 0 20 20" fill="none" xmlns="http://www.w3.org/2000/svg">
<path d="M7.49996 1.66666C4.28817 1.66666 1.66663 4.2882 1.66663 7.49999C1.66663 10.7118 4.28817 13.3333 7.49996 13.3333C8.95662 13.3333 10.2875 12.79 11.3118 11.901L11.6666 12.2558V13.3333L16.6666 18.3333L18.3333 16.6667L13.3333 11.6667H12.2558L11.901 11.3118C12.79 10.2875 13.3333 8.95665 13.3333 7.49999C13.3333 4.2882 10.7117 1.66666 7.49996 1.66666ZM7.49996 3.33332C9.81101 3.33332 11.6666 5.18893 11.6666 7.49999C11.6666 9.81104 9.81101 11.6667 7.49996 11.6667C5.1889 11.6667 3.33329 9.81104 3.33329 7.49999C3.33329 5.18893 5.1889 3.33332 7.49996 3.33332Z" fill="#5F6367"/>
</svg>
