<svg width="20" height="20" viewBox="0 0 20 20" fill="none" xmlns="http://www.w3.org/2000/svg">
<path fill-rule="evenodd" clip-rule="evenodd" d="M12.7582 17.525C12.6749 18.0917 12.1582 18.5417 11.5415 18.5417H8.4582C7.84154 18.5417 7.32487 18.0917 7.24987 17.4834L7.02487 15.9084C6.79987 15.7917 6.5832 15.6667 6.36654 15.525L4.86654 16.125C4.2832 16.3417 3.64154 16.1 3.3582 15.5834L1.8332 12.9417C1.54154 12.3917 1.66654 11.7417 2.1332 11.375L3.4082 10.3834C3.39987 10.2584 3.39154 10.1334 3.39154 10C3.39154 9.87504 3.39987 9.7417 3.4082 9.6167L2.14154 8.62504C1.64987 8.25004 1.52487 7.57504 1.8332 7.05837L3.37487 4.40004C3.6582 3.88337 4.29987 3.65004 4.86654 3.87504L6.37487 4.48337C6.59154 4.34171 6.8082 4.21671 7.02487 4.10004L7.24987 2.50837C7.32487 1.92504 7.84154 1.46671 8.44987 1.46671H11.5332C12.1499 1.46671 12.6665 1.91671 12.7415 2.52504L12.9665 4.10004C13.1915 4.21671 13.4082 4.34171 13.6249 4.48337L15.1249 3.88337C15.7165 3.66671 16.3582 3.90837 16.6415 4.42504L18.1749 7.07504C18.4749 7.62504 18.3415 8.27504 17.8749 8.6417L16.6082 9.63337C16.6165 9.75837 16.6249 9.88337 16.6249 10.0167C16.6249 10.15 16.6165 10.275 16.6082 10.4L17.8749 11.3917C18.3415 11.7667 18.4749 12.4167 18.1832 12.9417L16.6332 15.625C16.3499 16.1417 15.7082 16.375 15.1332 16.15L13.6332 15.55C13.4165 15.6917 13.1999 15.8167 12.9832 15.9334L12.7582 17.525ZM8.84987 16.875H11.1499L11.4582 14.75L11.8999 14.5667C12.2665 14.4167 12.6332 14.2 13.0165 13.9167L13.3915 13.6334L15.3749 14.4334L16.5249 12.4334L14.8332 11.1167L14.8915 10.65L14.8941 10.6276C14.9182 10.419 14.9415 10.2173 14.9415 10C14.9415 9.77504 14.9165 9.55837 14.8915 9.35004L14.8332 8.88337L16.5249 7.5667L15.3665 5.56671L13.3749 6.36671L12.9999 6.07504C12.6499 5.80837 12.2749 5.59171 11.8915 5.43337L11.4582 5.25004L11.1499 3.12504H8.84987L8.54154 5.25004L8.09987 5.42504C7.7332 5.58337 7.36654 5.79171 6.9832 6.08337L6.6082 6.35837L4.62487 5.56671L3.46654 7.55837L5.1582 8.87504L5.09987 9.3417C5.07487 9.55837 5.04987 9.78337 5.04987 10C5.04987 10.2167 5.06654 10.4417 5.09987 10.65L5.1582 11.1167L3.46654 12.4334L4.61654 14.4334L6.6082 13.6334L6.9832 13.925C7.34154 14.2 7.69987 14.4084 8.09154 14.5667L8.5332 14.75L8.84987 16.875ZM12.9165 10C12.9165 11.6109 11.6107 12.9167 9.99987 12.9167C8.38904 12.9167 7.0832 11.6109 7.0832 10C7.0832 8.38921 8.38904 7.08337 9.99987 7.08337C11.6107 7.08337 12.9165 8.38921 12.9165 10Z" fill="#5F6367"/>
</svg>
