<svg width="18" height="14" viewBox="0 0 18 14" fill="none" xmlns="http://www.w3.org/2000/svg">
<path d="M15.6666 1.99999H8.99996L7.33329 0.333328H2.33329C1.41663 0.333328 0.674959 1.08333 0.674959 1.99999L0.666626 12C0.666626 12.9167 1.41663 13.6667 2.33329 13.6667H15.6666C16.5833 13.6667 17.3333 12.9167 17.3333 12V3.66666C17.3333 2.74999 16.5833 1.99999 15.6666 1.99999ZM11.5 4.49999C12.4166 4.49999 13.1666 5.24999 13.1666 6.16666C13.1666 7.08333 12.4166 7.83333 11.5 7.83333C10.5833 7.83333 9.83329 7.08333 9.83329 6.16666C9.83329 5.24999 10.5833 4.49999 11.5 4.49999ZM14.8333 11.1667H8.16663V10.3333C8.16663 9.22499 10.3916 8.66666 11.5 8.66666C12.6083 8.66666 14.8333 9.22499 14.8333 10.3333V11.1667Z" fill="#5F6367"/>
</svg>
