<svg width="20" height="20" viewBox="0 0 20 20" fill="none" xmlns="http://www.w3.org/2000/svg">
<path d="M8.33337 1.66667L7.50004 2.5H3.33337V4.16667H4.16671V16.6667C4.16671 17.1019 4.32615 17.5455 4.64034 17.8597C4.95453 18.1739 5.39819 18.3333 5.83337 18.3333H14.1667C14.6019 18.3333 15.0455 18.1739 15.3597 17.8597C15.6739 17.5455 15.8334 17.1019 15.8334 16.6667V4.16667H16.6667V2.5H12.5L11.6667 1.66667H8.33337ZM5.83337 4.16667H14.1667V16.6667H5.83337V4.16667ZM7.50004 5.83333V15H9.16671V5.83333H7.50004ZM10.8334 5.83333V15H12.5V5.83333H10.8334Z" fill="#5F6367"/>
</svg>
