<svg width="20" height="20" viewBox="0 0 20 20" fill="none" xmlns="http://www.w3.org/2000/svg">
<g clip-path="url(#clip0_306_1402)">
<path d="M9.99175 1.66667C5.39175 1.66667 1.66675 5.4 1.66675 10C1.66675 14.6 5.39175 18.3333 9.99175 18.3333C14.6001 18.3333 18.3334 14.6 18.3334 10C18.3334 5.4 14.6001 1.66667 9.99175 1.66667ZM10.0001 16.6667C6.31675 16.6667 3.33341 13.6833 3.33341 10C3.33341 6.31667 6.31675 3.33334 10.0001 3.33334C13.6834 3.33334 16.6667 6.31667 16.6667 10C16.6667 13.6833 13.6834 16.6667 10.0001 16.6667ZM10.4167 5.83334H9.16675V10.8333L13.5417 13.4583L14.1667 12.4333L10.4167 10.2083V5.83334Z" fill="#5F6367"/>
</g>
<defs>
<clipPath id="clip0_306_1402">
<rect width="20" height="20" fill="white"/>
</clipPath>
</defs>
</svg>
